# xmcd
#
# Track frame offsets:
#	150
#	13153
#	32995
#	46869
#
# Disc length: 878 seconds
#
# Revision: 2
# Processed by: cddbd v1.5.2PL0 Copyright (c) Steve Scherf et al.
# Submitted via: audiograbber 1.83.01
#
DISCID=2b036c04
DTITLE=Danny Davis - Maxi CD - Verrückt nach Liebe (LC 08453)
DYEAR=1999
DGENRE=Deutsch
TTITLE0=Verrückt nach Liebe (Radio Mix)
TTITLE1=Verrückt nach Liebe (Disco Mix)
TTITLE2=Hände weg von ihm
TTITLE3=Verrückt nach Liebe (Power Mix)
EXTD=
EXTT0=
EXTT1=
EXTT2=
EXTT3=
PLAYORDER=
